# xmcd
#
# Track frame offsets:
#	150
#	17862
#	29615
#	49185
#	60895
#	73777
#	90190
#	108815
#	127187
#	138307
#	152582
#	164135
#	179595
#	189285
#
# Disc length: 2623 seconds
#
# Revision: 0
# Processed by: cddbd v1.4PL0 Copyright (c) Steve Scherf et al.
# Submitted via: dBpowerAMP V4.0
#
DISCID=bc0a3d0e
DTITLE=Various Artist - Points West: New Horizons in Country Music
DYEAR=1990
DGENRE=Country
TTITLE0=Rum and Rodeo - Heather Myles
TTITLE1=Goodbye Lonesome, Hello Baby Doll - Lonesome Strangers
TTITLE2=Rainin' Rainin' Rainin' - Gary Stewart
TTITLE3=Red Chevrolet - Jimmie Dale Gilmore
TTITLE4=Stronger Than Dirt - Ted Roddy and The Talltops
TTITLE5=Row of Dominoes - Joe Ely
TTITLE6=The Garage Sale - Buddy Miller
TTITLE7=Nothin' But a Woman - Gary Stewart
TTITLE8=Lovin' the Bottle - Heather Myles
TTITLE9=Fair and Square - Jimmie Dale Gilmore
TTITLE10=Where Can She Be - Ted Roddy and The Talltops
TTITLE11=Another Fool Like Me - Lonesome Strangers
TTITLE12=Playboy - Bobby Durham
TTITLE13=Feels Like I'm Fallin' in Love - Buddy Miller
EXTD=
EXTT0=
EXTT1=
EXTT2=
EXTT3=
EXTT4=
EXTT5=
EXTT6=
EXTT7=
EXTT8=
EXTT9=
EXTT10=
EXTT11=
EXTT12=
EXTT13=
PLAYORDER=
